{"title":"Sid &amp; Nancy 1986 720p BRRip x264 AC3 5.1 titler","uid":13120499,"size":1722112290,"categoryP":"video","categoryS":"hd___movies","magnet":"?xt=urn:btih:f94e5e09d96175f4da9f7458f7b647eda74caac2&amp;dn=Sid+%26amp%3B+Nancy+1986+720p+BRRip+x264+AC3+5.1+titler&amp;tr=udp%3A%2F%2Ftracker.leechers-paradise.org%3A6969&amp;tr=udp%3A%2F%2Fzer0day.ch%3A1337&amp;tr=udp%3A%2F%2Fopen.demonii.com%3A1337&amp;tr=udp%3A%2F%2Ftracker.coppersurfer.tk%3A6969&amp;tr=udp%3A%2F%2Fexodus.desync.com%3A6969","seeders":1,"leechers":0,"uploader":"movieZ.freak","files":20,"time":1451697635,"description":"SOURCE: Sid and Nancy 1986 720p BluRay X264 DTS\r\n\r\n \nhttp://www.imdb.com/title/tt0091954/\r\n\r\n \nhttp://www.rottentomatoes.com/m/sid_and_nancy/\r\n\r\n \nhttps://en.wikipedia.org/wiki/Sid_and_Nancy\r\n\r\n----------------------------------------------------------------\r\n \nhttps://en.wikipedia.org/wiki/Sid_Vicious\r\n \nhttps://en.wikipedia.org/wiki/Nancy_Spungen\r\n\r\n\r\n\r\n- SAMPLE: Yes\r\n\r\n- SUBTITLE: English\r\n\r\n- LANGUAGE / AUDIO: English\r\n\r\n\r\n\r\nMOVIE SCREENSHOTS / SOUNDTRACK\r\n-------------------------------\r\n \nhttp://someimage.com/EH9S\r\n \nhttp://someimage.com/RuwD\r\n\r\n\r\n\r\nDIRECTOR: Alex Cox\r\n\r\n\r\nCAST: Gary Oldman, Chloe Webb, David Hayman, Andrew Schofield, Xander Berkeley, Sy Richardson, Courtney Love, ...\r\n\r\n\r\nPLOT:\r\n-----------\r\nPunk rock's first great embodiment of the motto &quot;live fast and die young,&quot; Sid Vicious joined The Sex Pistols when they were already established as the most controversial rock band in British history; and it soon became apparent that he couldn't play his instrument, had a magnetic attraction to chaos, and possessed a dangerous thirst for booze, drugs, and violence. Sid &amp; Nancy opens shortly after Sid (Gary Oldman) joined the band, when he meets an obnoxious American punk groupie named Nancy Spungen (Chloe Webb). Nancy claims that she can get drugs, and Sid naively gives her his money. Nancy doesn't show up with the goods, but when Sid runs into her a few days later, she has a tall tale about getting ripped off - and Sid sympathizes with her. Before long, Sid and Nancy have fallen in love, and while they argue with uncommon vehemence, they also depend completely on each other. When The Sex Pistols break up, Sid has few prospects and an increasingly voracious appetite for heroin, and Nancy's attempts to &quot;manage&quot; his career only hasten his downhill slide. Former Clash leader Joe Strummer wrote the film's theme song, &quot;Love Kills,&quot; and The Pogues, The Circle Jerks, and Pray for Rain contributed to the soundtrack.\r\n\r\n\r\n************************************\r\n\r\n- Duration: 1h 53mn\r\n\r\n- Nominal bit rate: 1461 Kbps\r\n\r\n- Res: 1280 x 696\r\n\r\n- AR: 1.85:1\r\n\r\n- FPS: 23.976 fps\r\n\r\n- Audio: AC3, 6 channels, 448 Kbps\r\n\r\n************************************\r\n\r\nGeneral\r\n--------------\r\nFormat : Matroska\r\nFormat version : Version 4 / Version 2\r\nFile size : 1.50 GiB\r\nDuration : 1h 53mn\r\nOverall bit rate : 1893 Kbps\r\nEncoded date : UTC 2015-12-29 01:10:47\r\nWriting application : mkvmerge v8.6.1 ('Flying') 64bit\r\nWriting library : libebml v1.3.3 + libmatroska v1.4.4\r\n\r\nVideo\r\n---------\r\nFormat : AVC\r\nFormat/Info : Advanced Video Codec\r\nFormat profile :   \r\nFormat settings, CABAC : Yes\r\nFormat settings, ReFrames : 5 frames\r\nCodec ID : V_MPEG4/ISO/AVC\r\nDuration : 1h 53mn\r\nBit rate : 1461 Kbps\r\nWidth : 1280 pixels\r\nHeight : 696 pixels\r\nDisplay aspect ratio : 1.85:1\r\nFrame rate mode : Constant\r\nFrame rate : 23.976 fps\r\nColor space : YUV\r\nChroma subsampling : 4:2:0\r\nBit depth : 8 bits\r\nScan type : Progressive\r\nBits/(Pixel*Frame) : 0.068\r\nStream size : 1.11 GiB (74%)\r\nWriting library : x264 core 142\r\nEncoding settings : cabac=1 / ref=5\r\nDefault : Yes\r\nForced : No\r\n\r\nAudio\r\n----------\r\nFormat : AC-3\r\nFormat/Info : Audio Coding 3\r\nMode extension : CM (complete main)\r\nFormat settings, Endianness : Big\r\nCodec ID : A_AC3\r\nDuration : 1h 53mn\r\nBit rate mode : Constant\r\nBit rate : 448 Kbps\r\nChannel(s) : 6 channels\r\nChannel positions : Front: L C R, Side: L R, LFE\r\nSampling rate : 48.0 KHz\r\nCompression mode : Lossy\r\nStream size : 363 MiB (24%)\r\nTitle : Surround\r\nLanguage : English\r\nDefault : Yes\r\nForced : No","torrent":{"xt":"urn:btih:f94e5e09d96175f4da9f7458f7b647eda74caac2","amp;dn":"Sid+%26amp%3B+Nancy+1986+720p+BRRip+x264+AC3+5.1+titler","amp;tr":["udp%3A%2F%2Ftracker.leechers-paradise.org%3A6969","udp%3A%2F%2Fzer0day.ch%3A1337","udp%3A%2F%2Fopen.demonii.com%3A1337","udp%3A%2F%2Ftracker.coppersurfer.tk%3A6969","udp%3A%2F%2Fexodus.desync.com%3A6969"],"infoHash":"f94e5e09d96175f4da9f7458f7b647eda74caac2","infoHashBuffer":{"type":"Buffer","data":[249,78,94,9,217,97,117,244,218,159,116,88,247,182,71,237,167,76,170,194]},"announce":[],"urlList":[]}}